<svg width="57" height="54" viewBox="0 0 57 54" fill="none" xmlns="http://www.w3.org/2000/svg">
<path d="M0.1875 27C0.1875 12.0883 12.2758 0 27.1875 0H56.1875V54H27.1875C12.2758 54 0.1875 41.9117 0.1875 27Z" fill="#F8F8F8"/>
<g clip-path="url(#clip0_2629_1359)">
<path d="M23.1875 23H27.1875V19H23.1875V23ZM29.1875 35H33.1875V31H29.1875V35ZM23.1875 35H27.1875V31H23.1875V35ZM23.1875 29H27.1875V25H23.1875V29ZM29.1875 29H33.1875V25H29.1875V29ZM35.1875 19V23H39.1875V19H35.1875ZM29.1875 23H33.1875V19H29.1875V23ZM35.1875 29H39.1875V25H35.1875V29ZM35.1875 35H39.1875V31H35.1875V35Z" fill="#323232"/>
</g>
<defs>
<clipPath id="clip0_2629_1359">
<rect width="24" height="24" fill="white" transform="translate(19.1875 15)"/>
</clipPath>
</defs>
</svg>
