<svg width="57" height="54" viewBox="0 0 57 54" fill="none" xmlns="http://www.w3.org/2000/svg">
<path d="M0.191406 27C0.191406 12.0883 12.2797 0 27.1914 0H56.1914V54H27.1914C12.2797 54 0.191406 41.9117 0.191406 27Z" fill="#F8F8F8"/>
<g clip-path="url(#clip0_2629_1360)">
<path d="M31.1914 27C33.4014 27 35.1914 25.21 35.1914 23C35.1914 20.79 33.4014 19 31.1914 19C28.9814 19 27.1914 20.79 27.1914 23C27.1914 25.21 28.9814 27 31.1914 27ZM31.1914 29C28.5214 29 23.1914 30.34 23.1914 33V35H39.1914V33C39.1914 30.34 33.8614 29 31.1914 29Z" fill="#323232"/>
</g>
<defs>
<clipPath id="clip0_2629_1360">
<rect width="24" height="24" fill="white" transform="translate(19.1914 15)"/>
</clipPath>
</defs>
</svg>
