<svg width="57" height="54" viewBox="0 0 57 54" fill="none" xmlns="http://www.w3.org/2000/svg">
<path d="M0.652344 27C0.652344 12.0883 12.7407 0 27.6523 0H56.6523V54H27.6523C12.7407 54 0.652344 41.9117 0.652344 27Z" fill="#F8F8F8"/>
<g clip-path="url(#clip0_2629_1362)">
<path d="M25.2723 25.79C26.7123 28.62 29.0323 30.93 31.8623 32.38L34.0623 30.18C34.3323 29.91 34.7323 29.82 35.0823 29.94C36.2023 30.31 37.4123 30.51 38.6523 30.51C39.2023 30.51 39.6523 30.96 39.6523 31.51V35C39.6523 35.55 39.2023 36 38.6523 36C29.2623 36 21.6523 28.39 21.6523 19C21.6523 18.45 22.1023 18 22.6523 18H26.1523C26.7023 18 27.1523 18.45 27.1523 19C27.1523 20.25 27.3523 21.45 27.7223 22.57C27.8323 22.92 27.7523 23.31 27.4723 23.59L25.2723 25.79Z" fill="#323232"/>
</g>
<defs>
<clipPath id="clip0_2629_1362">
<rect width="24" height="24" fill="white" transform="translate(18.6523 15)"/>
</clipPath>
</defs>
</svg>
